<svg width="45" height="43" viewBox="0 0 45 43" fill="none" xmlns="http://www.w3.org/2000/svg">
<path d="M38.954 6.90817C35.0561 3.01022 29.8711 0.862183 24.3622 0.862183C18.7514 0.862183 13.5016 3.07503 9.58516 7.09334C9.15925 7.52851 9.16851 8.23217 9.60367 8.66734C10.0388 9.09324 10.7425 9.08398 11.1777 8.64882C14.6775 5.06567 19.3532 3.09355 24.3622 3.09355C34.5191 3.08429 42.7779 11.3431 42.7779 21.5C42.7779 31.6569 34.5191 39.9157 24.3622 39.9157C14.2053 39.9157 5.94645 31.6569 5.94645 21.5V21.2685L7.77969 23.1018C7.99264 23.3147 8.27967 23.4258 8.56669 23.4258C8.85371 23.4258 9.13147 23.3147 9.35369 23.1018C9.78885 22.6666 9.78885 21.9629 9.35369 21.5278L5.63165 17.7965C5.19649 17.3613 4.49282 17.3613 4.05766 17.7965L0.326372 21.5278C-0.108791 21.9629 -0.108791 22.6666 0.326372 23.1018C0.761535 23.5369 1.4652 23.5369 1.90037 23.1018L3.7336 21.2685V21.5C3.7336 27.009 5.88164 32.1939 9.77959 36.0918C13.6775 39.9898 18.8625 42.1378 24.3714 42.1378C29.8804 42.1378 35.0653 39.9898 38.9633 36.0918C42.8612 32.1939 45 27.009 45 21.5C45 15.991 42.852 10.8061 38.954 6.90817Z" fill="url(#paint0_linear_79_666)"/>
<path d="M30.2697 13.9911L16.6223 27.6293C16.1871 28.0645 16.1871 28.7681 16.6223 29.2033C16.8352 29.4162 17.1222 29.5274 17.4093 29.5274C17.6963 29.5274 17.9741 29.4162 18.1963 29.2033L31.8437 15.5558C32.2789 15.1207 32.2789 14.417 31.8437 13.9819C31.4085 13.556 30.7049 13.5559 30.2697 13.9911Z" fill="url(#paint1_linear_79_666)"/>
<path d="M26.6958 23.1759C25.1496 24.7221 25.1496 27.2497 26.6958 28.796C27.4458 29.5459 28.4457 29.9626 29.5105 29.9626C30.5752 29.9626 31.5752 29.5459 32.3251 28.796C33.8714 27.2497 33.8714 24.7221 32.3251 23.1759C31.5752 22.4259 30.5752 22.0093 29.5105 22.0093C28.4457 22.0093 27.455 22.4259 26.6958 23.1759ZM30.7511 27.2312C30.4178 27.5645 29.9827 27.7405 29.5105 27.7405C29.0383 27.7405 28.6031 27.5553 28.2698 27.2312C27.5846 26.5461 27.5846 25.435 28.2698 24.7499C28.6031 24.4166 29.0383 24.2406 29.5105 24.2406C29.9827 24.2406 30.4178 24.4258 30.7511 24.7499C31.4363 25.435 31.4363 26.5461 30.7511 27.2312Z" fill="url(#paint2_linear_79_666)"/>
<path d="M19.2518 13.0005C18.187 13.0005 17.1871 13.4171 16.4371 14.1671C15.6872 14.9171 15.2705 15.917 15.2705 16.9818C15.2705 18.0465 15.6872 19.0465 16.4371 19.7964C17.1871 20.5464 18.187 20.963 19.2518 20.963C20.3165 20.963 21.3165 20.5464 22.0665 19.7964C22.8164 19.0465 23.2331 18.0465 23.2331 16.9818C23.2331 15.917 22.8164 14.9171 22.0665 14.1671C21.3072 13.4171 20.3165 13.0005 19.2518 13.0005ZM20.4925 18.2224C20.1591 18.5558 19.724 18.7317 19.2518 18.7317C18.7796 18.7317 18.3444 18.5465 18.0111 18.2224C17.6778 17.8891 17.5019 17.454 17.5019 16.9818C17.5019 16.5096 17.687 16.0744 18.0111 15.7411C18.3444 15.4078 18.7796 15.2319 19.2518 15.2319C19.724 15.2319 20.1591 15.417 20.4925 15.7411C20.8258 16.0744 21.0017 16.5096 21.0017 16.9818C21.0017 17.4447 20.8258 17.8891 20.4925 18.2224Z" fill="url(#paint3_linear_79_666)"/>
<defs>
<linearGradient id="paint0_linear_79_666" x1="22.5" y1="0.862183" x2="22.5" y2="42.1378" gradientUnits="userSpaceOnUse">
<stop stop-color="#F65C30"/>
<stop offset="0.9999" stop-color="#FF4259"/>
<stop offset="1" stop-color="#ED7609"/>
</linearGradient>
<linearGradient id="paint1_linear_79_666" x1="24.233" y1="13.6636" x2="24.233" y2="29.5274" gradientUnits="userSpaceOnUse">
<stop stop-color="#F65C30"/>
<stop offset="0.9999" stop-color="#FF4259"/>
<stop offset="1" stop-color="#ED7609"/>
</linearGradient>
<linearGradient id="paint2_linear_79_666" x1="29.5105" y1="22.0093" x2="29.5105" y2="29.9626" gradientUnits="userSpaceOnUse">
<stop stop-color="#F65C30"/>
<stop offset="0.9999" stop-color="#FF4259"/>
<stop offset="1" stop-color="#ED7609"/>
</linearGradient>
<linearGradient id="paint3_linear_79_666" x1="19.2518" y1="13.0005" x2="19.2518" y2="20.963" gradientUnits="userSpaceOnUse">
<stop stop-color="#F65C30"/>
<stop offset="0.9999" stop-color="#FF4259"/>
<stop offset="1" stop-color="#ED7609"/>
</linearGradient>
</defs>
</svg>
