<svg width="43" height="45" viewBox="0 0 43 45" fill="none" xmlns="http://www.w3.org/2000/svg">
<path d="M36.8956 17.1113V15.3813C36.8956 11.2405 35.4303 7.39286 32.7738 4.53782C30.0511 1.60714 26.3074 0 22.2234 0H20.7959C16.7118 0 12.9681 1.60714 10.2454 4.53782C7.58894 7.39286 6.1236 11.2405 6.1236 15.3813V17.1113C2.89986 17.3288 0.337891 20.0137 0.337891 23.2941V25.9979C0.337891 29.4107 3.1173 32.1901 6.53011 32.1901H10.0186C10.6425 32.1901 11.153 31.6796 11.153 31.0557V18.2269C11.153 17.6029 10.6425 17.0924 10.0186 17.0924H8.39251V15.3813C8.39251 7.90336 13.7244 2.26891 20.7864 2.26891H22.2139C29.2854 2.26891 34.6078 7.90336 34.6078 15.3813V17.0924H32.9818C32.3578 17.0924 31.8473 17.6029 31.8473 18.2269V31.0462C31.8473 31.6702 32.3578 32.1807 32.9818 32.1807H34.57C34.1068 38.0987 30.0322 39.4695 28.1415 39.7815C27.6215 38.1838 26.1183 37.0305 24.3505 37.0305H21.5144C19.3211 37.0305 17.5343 38.8172 17.5343 41.0105C17.5343 43.2038 19.3211 45 21.5144 45H24.3599C26.194 45 27.7349 43.7521 28.1982 42.0693C29.1246 41.937 30.59 41.6061 32.0459 40.7553C34.0973 39.5546 36.527 37.1061 36.8484 32.1712C40.091 31.9727 42.6625 29.2784 42.6625 25.9884V23.2847C42.6719 20.0137 40.1194 17.3193 36.8956 17.1113ZM8.90301 29.9118H6.54902C4.38411 29.9118 2.6257 28.1534 2.6257 25.9884V23.2847C2.6257 21.1197 4.38411 19.3613 6.54902 19.3613H8.90301V29.9118ZM24.3599 42.7311H21.5144C20.569 42.7311 19.8032 41.9653 19.8032 41.02C19.8032 40.0746 20.569 39.3088 21.5144 39.3088H24.3599C25.3053 39.3088 26.0711 40.0746 26.0711 41.02C26.0711 41.9653 25.3053 42.7311 24.3599 42.7311ZM40.403 25.9884C40.403 28.1534 38.6446 29.9118 36.4797 29.9118H34.1257V19.3613H36.4797C38.6446 19.3613 40.403 21.1197 40.403 23.2847V25.9884Z" fill="url(#paint0_linear_79_688)"/>
<defs>
<linearGradient id="paint0_linear_79_688" x1="21.5002" y1="0" x2="21.5002" y2="45" gradientUnits="userSpaceOnUse">
<stop stop-color="#F65C30"/>
<stop offset="0.9999" stop-color="#FF4259"/>
<stop offset="1" stop-color="#ED7609"/>
</linearGradient>
</defs>
</svg>
