<svg width="50" height="28" viewBox="0 0 50 28" fill="none" xmlns="http://www.w3.org/2000/svg">
<path d="M47.8004 6.60429C46.4501 5.14153 44.527 4.33343 42.3891 4.33343H37.2439V1.5511C37.2439 0.875981 36.6915 0.323608 36.0164 0.323608H11.5074C10.8323 0.323608 10.2799 0.875981 10.2799 1.5511V5.82688H5.50289C4.82776 5.82688 4.27539 6.37925 4.27539 7.05437C4.27539 7.7295 4.82776 8.28187 5.50289 8.28187H11.4767C11.4869 8.28187 11.4972 8.28187 11.5074 8.28187C11.5074 8.28187 11.5074 8.28187 11.5176 8.28187C12.1927 8.28187 12.7451 7.7295 12.7451 7.05437V2.7786H34.7991V5.56092V22.0196H23.2402C23.1891 22.0196 23.1379 22.0196 23.0868 22.0298C22.473 20.5159 20.9898 19.4418 19.2611 19.4418C17.5221 19.4418 16.0389 20.5261 15.4354 22.0503C15.3433 22.0298 15.2615 22.0196 15.1694 22.0196H12.7451V17.7336C12.7451 17.0585 12.1927 16.5061 11.5176 16.5061C11.4972 16.5061 11.4767 16.5061 11.4562 16.5061C11.4358 16.5061 11.4256 16.5061 11.4051 16.5061H5.50289C4.82776 16.5061 4.27539 17.0585 4.27539 17.7336C4.27539 18.4087 4.82776 18.9611 5.50289 18.9611H10.2799V23.2369C10.2799 23.912 10.8323 24.4643 11.5074 24.4643H15.1592C15.1899 24.4643 15.2103 24.4643 15.241 24.4643C15.6502 26.3056 17.2971 27.6763 19.2611 27.6763C21.2251 27.6763 22.8617 26.3056 23.2811 24.4643H36.0266H37.9906C38.41 26.2954 40.0467 27.6763 42.0107 27.6763C43.9747 27.6763 45.6113 26.3056 46.0307 24.4643H48.7721C49.4472 24.4643 49.9996 23.912 49.9996 23.2369V13.0384C49.9996 10.3891 49.2324 8.15912 47.8004 6.60429ZM19.2611 25.2315C18.3404 25.2315 17.5937 24.4848 17.5937 23.5642C17.5937 22.6436 18.3404 21.8968 19.2611 21.8968C20.1817 21.8968 20.9284 22.6436 20.9284 23.5642C20.9284 24.4848 20.1817 25.2315 19.2611 25.2315ZM42.0107 25.2315C41.09 25.2315 40.3433 24.4848 40.3433 23.5642C40.3433 22.6436 41.09 21.8968 42.0107 21.8968C42.9313 21.8968 43.678 22.6436 43.678 23.5642C43.6678 24.4848 42.9211 25.2315 42.0107 25.2315ZM47.5446 22.0196H45.8261C45.2124 20.5159 43.7292 19.4418 42.0107 19.4418C40.2922 19.4418 38.8089 20.5057 38.1952 22.0196H37.2541V6.78842H42.3994C45.6215 6.78842 47.5446 9.13089 47.5446 13.0486V22.0196Z" fill="url(#paint0_linear_79_646)"/>
<path d="M21.0822 14.6956C20.6015 15.1764 20.6015 15.9538 21.0822 16.4345C21.3175 16.6698 21.6346 16.7926 21.9517 16.7926C22.2688 16.7926 22.5757 16.6698 22.8212 16.4345L25.982 13.2737L25.9922 13.2635C26.0127 13.2328 26.0434 13.2124 26.0638 13.1817C26.0741 13.1612 26.0843 13.151 26.0945 13.1305C26.1047 13.1101 26.115 13.0998 26.1354 13.0794C26.1457 13.0589 26.1559 13.0385 26.1661 13.018C26.1763 12.9976 26.1866 12.9873 26.1968 12.9669C26.207 12.9464 26.2173 12.926 26.2275 12.9055C26.2377 12.885 26.248 12.8748 26.248 12.8543C26.2582 12.8339 26.2582 12.8134 26.2684 12.793C26.2786 12.7725 26.2786 12.7521 26.2889 12.7418C26.2991 12.7214 26.2991 12.7009 26.2991 12.6805C26.2991 12.66 26.3093 12.6395 26.3093 12.6191C26.3093 12.5986 26.3196 12.5782 26.3196 12.5475C26.3196 12.527 26.3298 12.5168 26.3298 12.4963C26.34 12.4145 26.34 12.3327 26.3298 12.2508C26.3298 12.2304 26.3298 12.2201 26.3196 12.1997C26.3196 12.1792 26.3093 12.1588 26.3093 12.1281C26.3093 12.1076 26.2991 12.0872 26.2991 12.0667C26.2991 12.0462 26.2889 12.0258 26.2889 12.0053C26.2786 11.9849 26.2786 11.9644 26.2684 11.9542C26.2582 11.9337 26.2582 11.9133 26.248 11.8928C26.2377 11.8723 26.2275 11.8621 26.2275 11.8417C26.2173 11.8212 26.207 11.8007 26.1968 11.7803C26.1866 11.7598 26.1763 11.7496 26.1661 11.7291C26.1559 11.7087 26.1457 11.6882 26.1354 11.6678C26.1252 11.6473 26.115 11.6371 26.0945 11.6166C26.0843 11.5962 26.0741 11.5859 26.0638 11.5655C26.0434 11.5348 26.0127 11.5143 25.9922 11.4836L25.982 11.4734L22.9746 8.46605C22.4939 7.98528 21.7164 7.98528 21.2357 8.46605C20.7549 8.94682 20.7549 9.72423 21.2357 10.205L22.1461 11.1154H1.2275C0.552373 11.1154 0 11.6678 0 12.3429C0 13.018 0.552373 13.5704 1.2275 13.5704H22.1358L21.0822 14.6956Z" fill="url(#paint1_linear_79_646)"/>
<defs>
<linearGradient id="paint0_linear_79_646" x1="27.1375" y1="0.323608" x2="27.1375" y2="27.6763" gradientUnits="userSpaceOnUse">
<stop stop-color="#ED7609"/>
<stop offset="0.0001" stop-color="#F65C31"/>
<stop offset="1" stop-color="#FF4259"/>
</linearGradient>
<linearGradient id="paint1_linear_79_646" x1="13.1687" y1="8.10547" x2="13.1687" y2="16.7926" gradientUnits="userSpaceOnUse">
<stop stop-color="#ED7609"/>
<stop offset="0.0001" stop-color="#F65C31"/>
<stop offset="1" stop-color="#FF4259"/>
</linearGradient>
</defs>
</svg>
