<svg width="32" height="32" viewBox="0 0 32 32" fill="none" xmlns="http://www.w3.org/2000/svg">
<g clip-path="url(#clip0_16_193)">
<path d="M28.8822 3.97729H3.55352C1.93942 3.97729 0.630981 5.31279 0.630981 6.96025V24.858C0.630981 26.5054 1.93942 27.8409 3.55352 27.8409H28.8822C30.4962 27.8409 31.8047 26.5054 31.8047 24.858V6.96025C31.8047 5.31279 30.4962 3.97729 28.8822 3.97729ZM28.8822 6.96025V9.49607C27.517 10.6308 25.3405 12.3952 20.6877 16.1139C19.6623 16.9371 17.6311 18.9149 16.2178 18.8918C14.8048 18.9151 12.773 16.9368 11.748 16.1139C7.09587 12.3958 4.91889 10.631 3.55352 9.49607V6.96025H28.8822ZM3.55352 24.858V13.3238C4.94866 14.458 6.92716 16.0496 9.94279 18.4598C11.2736 19.529 13.6041 21.8893 16.2178 21.875C18.8187 21.8893 21.1197 19.5632 22.4923 18.4603C25.5079 16.0501 27.4869 14.4581 28.8822 13.3238V24.858H3.55352Z" fill="#ECF0F3"/>
</g>
<defs>
<clipPath id="clip0_16_193">
<rect width="31.1737" height="31.8182" fill="white" transform="translate(0.630981)"/>
</clipPath>
</defs>
</svg>
