<svg width="29" height="29" viewBox="0 0 29 29" fill="none" xmlns="http://www.w3.org/2000/svg">
<g clip-path="url(#clip0_16_189)">
<path d="M27.638 14.5457C27.638 7.05347 21.6907 0.983154 14.3502 0.983154C7.0098 0.983154 1.06244 7.05347 1.06244 14.5457C1.06244 21.3149 5.92159 26.9258 12.274 27.9441V18.4662H8.89849V14.5457H12.274V11.5575C12.274 8.1587 14.2565 6.28128 17.2928 6.28128C18.747 6.28128 20.2676 6.54597 20.2676 6.54597V9.8819H18.5916C16.9414 9.8819 16.4264 10.9275 16.4264 12V14.5457H20.1117L19.5223 18.4662H16.4264V27.9441C22.7789 26.9258 27.638 21.3149 27.638 14.5457Z" fill="#ECF0F3"/>
</g>
<defs>
<clipPath id="clip0_16_189">
<rect width="27.4329" height="28" fill="white" transform="translate(0.633789 0.545654)"/>
</clipPath>
</defs>
</svg>
