<svg width="28" height="32" viewBox="0 0 28 32" fill="none" xmlns="http://www.w3.org/2000/svg">
<g clip-path="url(#clip0_16_191)">
<path d="M13.7254 8.81245C9.83088 8.81245 6.68957 12.0187 6.68957 15.9937C6.68957 19.9687 9.83088 23.175 13.7254 23.175C17.6198 23.175 20.7611 19.9687 20.7611 15.9937C20.7611 12.0187 17.6198 8.81245 13.7254 8.81245ZM13.7254 20.6625C11.2086 20.6625 9.15118 18.5687 9.15118 15.9937C9.15118 13.4187 11.2025 11.325 13.7254 11.325C16.2482 11.325 18.2995 13.4187 18.2995 15.9937C18.2995 18.5687 16.2421 20.6625 13.7254 20.6625ZM22.69 8.5187C22.69 9.44995 21.9552 10.1937 21.0489 10.1937C20.1366 10.1937 19.4079 9.4437 19.4079 8.5187C19.4079 7.5937 20.1427 6.8437 21.0489 6.8437C21.9552 6.8437 22.69 7.5937 22.69 8.5187ZM27.3499 10.2187C27.2458 7.97495 26.7437 5.98745 25.1332 4.34995C23.5289 2.71245 21.5817 2.19995 19.3834 2.08745C17.1177 1.9562 10.3269 1.9562 8.06121 2.08745C5.86904 2.1937 3.9218 2.7062 2.31134 4.3437C0.70089 5.9812 0.204895 7.9687 0.0946735 10.2125C-0.0339179 12.525 -0.0339179 19.4562 0.0946735 21.7687C0.198771 24.0125 0.70089 26 2.31134 27.6375C3.9218 29.275 5.86291 29.7875 8.06121 29.9C10.3269 30.0312 17.1177 30.0312 19.3834 29.9C21.5817 29.7937 23.5289 29.2812 25.1332 27.6375C26.7376 26 27.2397 24.0125 27.3499 21.7687C27.4785 19.4562 27.4785 12.5312 27.3499 10.2187ZM24.4229 24.25C23.9453 25.475 23.0207 26.4187 21.8144 26.9125C20.008 27.6437 15.7216 27.475 13.7254 27.475C11.7291 27.475 7.43663 27.6375 5.63635 26.9125C4.43616 26.425 3.51153 25.4812 3.02778 24.25C2.31134 22.4062 2.47668 18.0312 2.47668 15.9937C2.47668 13.9562 2.31747 9.57495 3.02778 7.73745C3.50541 6.51245 4.43004 5.5687 5.63635 5.07495C7.44275 4.3437 11.7291 4.51245 13.7254 4.51245C15.7216 4.51245 20.0141 4.34995 21.8144 5.07495C23.0146 5.56245 23.9392 6.5062 24.4229 7.73745C25.1394 9.5812 24.974 13.9562 24.974 15.9937C24.974 18.0312 25.1394 22.4125 24.4229 24.25Z" fill="#ECF0F3"/>
</g>
<defs>
<clipPath id="clip0_16_191">
<rect width="27.4329" height="32" fill="white" transform="translate(0.00280762)"/>
</clipPath>
</defs>
</svg>
