<svg width="74" height="60" viewBox="0 0 74 60" fill="none" xmlns="http://www.w3.org/2000/svg">
<rect x="5" y="5" width="63" height="51" rx="25.5" stroke="#D2D2D2" stroke-width="0.5"/>
<g clip-path="url(#clip0_66_542)">
<path d="M32.8633 47.1068C30.0027 46.4121 27.0445 44.2224 24.5327 40.9403C22.1639 37.8452 20.5076 34.1592 19.9886 30.8275C19.3209 26.5413 20.5597 23.202 23.4771 21.4248L25.0975 20.4376C25.7207 20.058 26.4544 19.9438 27.1635 20.116C27.8716 20.2879 28.4708 20.7251 28.8504 21.3471L30.8263 24.5826C31.2069 25.206 31.3217 25.9401 31.1497 26.6499C30.9777 27.3596 30.5396 27.9597 29.9159 28.3395L29.3175 28.704C28.3025 29.3224 28.2662 30.5873 28.4144 31.5395C28.8485 34.3281 31.2279 37.4427 33.3104 37.9486L33.3106 37.9486C33.8739 38.0854 34.3685 38.0173 34.8227 37.7406L35.4162 37.3791C36.0394 36.9994 36.7731 36.8852 37.4823 37.0574C38.1914 37.2296 38.791 37.6677 39.1707 38.2908L41.143 41.5286C41.5227 42.1517 41.637 42.8855 41.4647 43.5947C41.2925 44.3038 40.8545 44.9034 40.2312 45.2831L38.6125 46.2692C36.8734 47.3287 34.9396 47.6107 32.865 47.1072C32.8645 47.1071 32.8637 47.1069 32.8633 47.1068ZM26.6795 22.1089C26.5027 22.066 26.3199 22.0945 26.1645 22.1891L24.544 23.1762C21.7723 24.8648 21.6389 28.0973 22.015 30.5119C22.483 33.5156 23.9942 36.8623 26.1613 39.6939C28.3566 42.5625 30.9758 44.5379 33.3473 45.1138L33.3485 45.1141C34.8755 45.4847 36.2875 45.2841 37.5454 44.5178L39.1642 43.5316C39.3196 43.4369 39.4288 43.2874 39.4717 43.1107C39.5146 42.9339 39.4862 42.751 39.3915 42.5956L37.4191 39.3579C37.3245 39.2025 37.175 39.0933 36.9982 39.0503C36.8214 39.0074 36.6385 39.0359 36.4831 39.1305L35.8896 39.4921C34.9735 40.0503 33.9142 40.2057 32.8265 39.9415C32.8263 39.9415 32.8264 39.9415 32.8263 39.9415C31.3697 39.5877 29.8771 38.4883 28.6233 36.8459C27.4589 35.3206 26.6441 33.5015 26.3878 31.855C26.0424 29.6358 26.7038 27.8947 28.2505 26.9525L28.8489 26.588C29.0043 26.4934 29.1136 26.3437 29.1565 26.1668C29.1993 25.9899 29.1706 25.8068 29.0758 25.6514L27.0999 22.4158C27.0053 22.2607 26.856 22.1518 26.6795 22.1089Z" fill="#226F54"/>
<path d="M34.3824 31.8407L37.2322 26.1163C36.9749 24.7699 37.01 23.4074 37.3371 22.0603C38.587 16.9136 43.7909 13.7434 48.9376 14.9932C54.0842 16.2431 57.2545 21.4471 56.0046 26.5937C54.7547 31.7404 49.5508 34.9106 44.4041 33.6607C43.0798 33.3391 41.8704 32.7589 40.804 31.9343L34.3824 31.8407ZM41.5501 29.894L41.8292 30.1274C42.7212 30.8732 43.7504 31.3915 44.8881 31.6678C48.9358 32.6508 53.0286 30.1575 54.0116 26.1098C54.9946 22.0621 52.5013 17.9693 48.4536 16.9863C44.4058 16.0033 40.3131 18.4966 39.3301 22.5443C39.0492 23.701 39.0418 24.8714 39.3081 26.0229L39.3911 26.3815L37.6706 29.8374L41.5501 29.894Z" fill="#226F54"/>
<path d="M44.6748 27.8818L42.0809 23.6241L43.8323 22.5571L45.3592 25.0634L50.478 21.945L51.545 23.6965L44.6748 27.8818Z" fill="#226F54"/>
</g>
<defs>
<clipPath id="clip0_66_542">
<rect width="35" height="35" fill="white" transform="translate(24.2598 9) rotate(13.6502)"/>
</clipPath>
</defs>
</svg>
