<svg width="65" height="56" viewBox="0 0 65 56" fill="none" xmlns="http://www.w3.org/2000/svg">
<mask id="mask0_29_249" style="mask-type:alpha" maskUnits="userSpaceOnUse" x="0" y="0" width="65" height="56">
<rect width="65" height="56" fill="#D9D9D9"/>
</mask>
<g mask="url(#mask0_29_249)">
<g filter="url(#filter0_d_29_249)">
<rect x="1" y="1" width="63" height="51" rx="25.5" stroke="#226F54"/>
</g>
<g clip-path="url(#clip0_29_249)">
<path d="M28.8636 43.1068C26.0029 42.4121 23.0447 40.2224 20.5329 36.9403C18.1641 33.8452 16.5079 30.1592 15.9889 26.8275C15.3211 22.5413 16.5599 19.202 19.4773 17.4248L21.0977 16.4376C21.7209 16.058 22.4546 15.9438 23.1637 16.116C23.8718 16.2879 24.471 16.7251 24.8507 17.3471L26.8265 20.5826C27.2071 21.206 27.322 21.9401 27.15 22.6499C26.978 23.3596 26.5398 23.9597 25.9162 24.3395L25.3178 24.704C24.3028 25.3224 24.2664 26.5873 24.4146 27.5395C24.8488 30.3281 27.2281 33.4427 29.3107 33.9486L29.3109 33.9486C29.8741 34.0854 30.3687 34.0173 30.823 33.7406L31.4164 33.3791C32.0396 32.9994 32.7734 32.8852 33.4825 33.0574C34.1916 33.2296 34.7912 33.6677 35.1709 34.2908L37.1433 37.5286C37.523 38.1517 37.6372 38.8855 37.465 39.5947C37.2928 40.3038 36.8548 40.9034 36.2315 41.2831L34.6127 42.2692C32.8736 43.3287 30.9399 43.6107 28.8652 43.1072C28.8648 43.1071 28.8639 43.1069 28.8636 43.1068V43.1068ZM22.6797 18.1089C22.503 18.066 22.3201 18.0945 22.1647 18.1891L20.5443 19.1762C17.7726 20.8648 17.6391 24.0973 18.0153 26.5119C18.4832 29.5156 19.9945 32.8623 22.1616 35.6939C24.3569 38.5625 26.9761 40.5379 29.3476 41.1138L29.3488 41.1141C30.8757 41.4847 32.2878 41.2841 33.5457 40.5178L35.1644 39.5316C35.3198 39.4369 35.429 39.2874 35.4719 39.1107C35.5149 38.9339 35.4864 38.751 35.3917 38.5956L33.4194 35.3579C33.3247 35.2025 33.1752 35.0933 32.9985 35.0503C32.8217 35.0074 32.6387 35.0359 32.4834 35.1305L31.8899 35.4921C30.9737 36.0503 29.9144 36.2057 28.8267 35.9415C28.8266 35.9415 28.8267 35.9415 28.8265 35.9415C27.3699 35.5877 25.8773 34.4883 24.6235 32.8459C23.4592 31.3206 22.6444 29.5015 22.3881 27.855C22.0426 25.6358 22.7041 23.8947 24.2508 22.9525L24.8492 22.588C25.0046 22.4934 25.1138 22.3437 25.1567 22.1668C25.1995 21.9899 25.1709 21.8068 25.076 21.6514L23.1002 18.4158C23.0056 18.2607 22.8562 18.1518 22.6797 18.1089V18.1089Z" fill="#226F54"/>
<path d="M30.3823 27.8407L33.2321 22.1163C32.9748 20.7699 33.0098 19.4074 33.337 18.0603C34.5869 12.9136 39.7908 9.74337 44.9375 10.9932C50.0841 12.2431 53.2543 17.4471 52.0045 22.5937C50.7546 27.7404 45.5506 30.9106 40.404 29.6607C39.0797 29.3391 37.8703 28.7589 36.8039 27.9343L30.3823 27.8407ZM37.55 25.894L37.8291 26.1274C38.7211 26.8732 39.7503 27.3915 40.888 27.6678C44.9357 28.6508 49.0285 26.1575 50.0115 22.1098C50.9945 18.0621 48.5012 13.9693 44.4534 12.9863C40.4057 12.0033 36.3129 14.4966 35.3299 18.5443C35.049 19.701 35.0417 20.8714 35.308 22.0229L35.3909 22.3815L33.6705 25.8374L37.55 25.894Z" fill="#226F54"/>
<path d="M40.6749 23.8818L38.081 19.6241L39.8325 18.5571L41.3593 21.0634L46.4782 17.945L47.5452 19.6965L40.6749 23.8818Z" fill="#226F54"/>
</g>
</g>
<defs>
<filter id="filter0_d_29_249" x="-15.5" y="-11.5" width="104" height="92" filterUnits="userSpaceOnUse" color-interpolation-filters="sRGB">
<feFlood flood-opacity="0" result="BackgroundImageFix"/>
<feColorMatrix in="SourceAlpha" type="matrix" values="0 0 0 0 0 0 0 0 0 0 0 0 0 0 0 0 0 0 127 0" result="hardAlpha"/>
<feOffset dx="4" dy="8"/>
<feGaussianBlur stdDeviation="10"/>
<feColorMatrix type="matrix" values="0 0 0 0 0.0164063 0 0 0 0 0.0875 0 0 0 0 0.0431818 0 0 0 0.5 0"/>
<feBlend mode="normal" in2="BackgroundImageFix" result="effect1_dropShadow_29_249"/>
<feBlend mode="normal" in="SourceGraphic" in2="effect1_dropShadow_29_249" result="shape"/>
</filter>
<clipPath id="clip0_29_249">
<rect width="35" height="35" fill="white" transform="translate(20.2598 5) rotate(13.6502)"/>
</clipPath>
</defs>
</svg>
