<svg width="105" height="93" viewBox="0 0 105 93" fill="none" xmlns="http://www.w3.org/2000/svg">
<g filter="url(#filter0_d_16_211)">
<rect x="17" y="13" width="63" height="51" rx="25.5" stroke="#226F54"/>
</g>
<g clip-path="url(#clip0_16_211)">
<path d="M44.8636 55.1068C42.0029 54.4121 39.0447 52.2224 36.5329 48.9403C34.1641 45.8452 32.5079 42.1592 31.9889 38.8275C31.3211 34.5413 32.5599 31.202 35.4773 29.4248L37.0977 28.4376C37.7209 28.058 38.4546 27.9438 39.1637 28.116C39.8718 28.2879 40.471 28.7251 40.8507 29.3471L42.8265 32.5826C43.2071 33.206 43.322 33.9401 43.15 34.6499C42.978 35.3596 42.5398 35.9597 41.9162 36.3395L41.3178 36.704C40.3028 37.3224 40.2664 38.5873 40.4146 39.5395C40.8488 42.3281 43.2281 45.4427 45.3107 45.9486L45.3109 45.9486C45.8741 46.0854 46.3687 46.0173 46.823 45.7406L47.4164 45.3791C48.0396 44.9994 48.7734 44.8852 49.4825 45.0574C50.1916 45.2296 50.7912 45.6677 51.1709 46.2908L53.1433 49.5286C53.523 50.1517 53.6372 50.8855 53.465 51.5947C53.2928 52.3038 52.8548 52.9034 52.2315 53.2831L50.6127 54.2692C48.8736 55.3287 46.9399 55.6107 44.8652 55.1072C44.8648 55.1071 44.8639 55.1069 44.8636 55.1068ZM38.6797 30.1089C38.503 30.066 38.3201 30.0945 38.1647 30.1891L36.5443 31.1762C33.7726 32.8648 33.6391 36.0973 34.0153 38.5119C34.4832 41.5156 35.9945 44.8623 38.1616 47.6939C40.3569 50.5625 42.9761 52.5379 45.3476 53.1138L45.3488 53.1141C46.8757 53.4847 48.2878 53.2841 49.5457 52.5178L51.1644 51.5316C51.3198 51.4369 51.429 51.2874 51.4719 51.1107C51.5149 50.9339 51.4864 50.751 51.3917 50.5956L49.4194 47.3579C49.3247 47.2025 49.1752 47.0933 48.9985 47.0503C48.8217 47.0074 48.6387 47.0359 48.4834 47.1305L47.8899 47.4921C46.9737 48.0503 45.9144 48.2057 44.8267 47.9415C44.8266 47.9415 44.8267 47.9415 44.8265 47.9415C43.3699 47.5877 41.8773 46.4883 40.6235 44.8459C39.4592 43.3206 38.6444 41.5015 38.3881 39.855C38.0426 37.6358 38.7041 35.8947 40.2508 34.9525L40.8492 34.588C41.0046 34.4934 41.1138 34.3437 41.1567 34.1668C41.1995 33.9899 41.1709 33.8068 41.076 33.6514L39.1002 30.4158C39.0056 30.2607 38.8562 30.1518 38.6797 30.1089Z" fill="#226F54"/>
<path d="M46.3822 39.8407L49.232 34.1163C48.9747 32.7699 49.0098 31.4074 49.3369 30.0603C50.5868 24.9136 55.7908 21.7434 60.9374 22.9932C66.084 24.2431 69.2543 29.4471 68.0044 34.5937C66.7545 39.7404 61.5506 42.9106 56.4039 41.6607C55.0796 41.3391 53.8702 40.7589 52.8038 39.9343L46.3822 39.8407ZM53.55 37.894L53.829 38.1274C54.7211 38.8732 55.7502 39.3915 56.8879 39.6678C60.9356 40.6508 65.0284 38.1575 66.0114 34.1098C66.9944 30.0621 64.5011 25.9693 60.4534 24.9863C56.4057 24.0033 52.3129 26.4966 51.3299 30.5443C51.049 31.701 51.0416 32.8714 51.3079 34.0229L51.3909 34.3815L49.6704 37.8374L53.55 37.894Z" fill="#226F54"/>
<path d="M56.6748 35.8818L54.0809 31.6241L55.8324 30.5571L57.3593 33.0634L62.4781 29.945L63.5451 31.6965L56.6748 35.8818Z" fill="#226F54"/>
</g>
<defs>
<filter id="filter0_d_16_211" x="0.5" y="0.5" width="104" height="92" filterUnits="userSpaceOnUse" color-interpolation-filters="sRGB">
<feFlood flood-opacity="0" result="BackgroundImageFix"/>
<feColorMatrix in="SourceAlpha" type="matrix" values="0 0 0 0 0 0 0 0 0 0 0 0 0 0 0 0 0 0 127 0" result="hardAlpha"/>
<feOffset dx="4" dy="8"/>
<feGaussianBlur stdDeviation="10"/>
<feColorMatrix type="matrix" values="0 0 0 0 0.0164063 0 0 0 0 0.0875 0 0 0 0 0.0431818 0 0 0 0.5 0"/>
<feBlend mode="normal" in2="BackgroundImageFix" result="effect1_dropShadow_16_211"/>
<feBlend mode="normal" in="SourceGraphic" in2="effect1_dropShadow_16_211" result="shape"/>
</filter>
<clipPath id="clip0_16_211">
<rect width="35" height="35" fill="white" transform="translate(36.2598 17) rotate(13.6502)"/>
</clipPath>
</defs>
</svg>
