<svg width="45" height="45" viewBox="0 0 45 45" fill="none" xmlns="http://www.w3.org/2000/svg">
<g clip-path="url(#clip0_79_705)">
<path d="M44.4127 25.5149C41.385 23.4605 39.1266 26.2956 29.9983 33.71L21.5767 33.7116C21.1928 33.7116 20.8812 33.4 20.8812 33.0161C20.8812 32.3607 21.1671 32.1053 21.5767 32.1053H26.781C28.5559 32.1053 30.5428 30.9489 30.5428 28.8929C30.5428 26.7084 28.5559 25.6804 26.781 25.6804C23.5187 25.6804 21.1703 25.9133 19.654 25.1021C18.369 24.4452 16.8881 24.0725 15.3075 24.0725C12.654 24.0725 10.2784 25.131 8.64964 26.7999L0 35.3162L9.63749 44.9537L12.85 41.7412H29.1165C30.7355 41.7412 32.2984 41.1469 33.5079 40.0723L44.522 27.7171C45.195 27.1196 45.1564 26.0209 44.4127 25.5149ZM32.3755 38.9255C31.468 39.7045 30.3131 40.1318 29.1165 40.1318C23.3067 40.1318 18.0398 40.1318 12.185 40.1318C11.3417 40.975 10.4936 41.8231 9.63749 42.6793L2.28087 35.3227L9.79972 27.9195C11.1891 26.4963 13.1969 25.6788 15.3075 25.6788C16.5797 25.6788 17.831 25.9727 18.8959 26.5156C20.6997 27.481 22.6208 27.2834 26.781 27.2834C26.8018 27.2834 28.9365 27.3011 28.9365 28.8896C28.9365 29.9851 27.6499 30.4959 26.781 30.4959H21.5767C20.3688 30.4959 19.275 31.3938 19.275 33.0129C19.275 34.285 20.3046 35.3146 21.5767 35.3146C23.5315 35.3146 28.7856 35.313 30.5685 35.313C40.1642 27.5179 41.4348 25.7976 43.2723 26.7019L32.3755 38.9255Z" fill="url(#paint0_linear_79_705)"/>
<path d="M32.5231 12.9059C31.1755 12.9059 29.7652 13.6447 28.9846 14.8735C28.4336 15.6606 28.061 17.0934 28.3292 18.1631C27.7847 18.592 27.2852 19.0787 26.8402 19.6184C26.988 16.1874 27.2113 14.0383 27.4699 12.4417C29.3395 12.4915 31.1305 10.8483 32.0525 9.07016C33.9398 5.69383 33.0644 2.23076 32.7833 0.0462646C31.3088 1.48225 24.8694 -0.201097 22.3154 4.17432C21.1878 6.10663 21.5203 8.62041 22.7025 10.1801C23.2776 10.9382 24.4646 11.661 25.0958 11.9646C24.7393 13.958 24.4373 16.756 24.2895 22.1803C24.2654 23.0782 24.9866 23.8219 25.8813 23.8219C25.8877 23.8219 25.8941 23.8219 25.9022 23.8219C26.5575 23.8139 27.1181 23.3979 27.3687 22.7939C27.751 21.8752 28.3742 20.9243 29.3877 20.0521C30.3161 21.0415 31.3843 21.4961 32.5055 21.4961C34.0892 21.4961 35.7613 20.5516 36.9403 18.5133C38.0406 16.6115 38.5337 16.1087 38.5466 16.0959C37.2278 15.5032 35.0016 12.9059 32.5231 12.9059ZM25.3239 10.2636C24.7939 9.95199 24.2301 9.53597 23.9827 9.2099C23.231 8.21724 22.8776 6.39897 23.7032 4.98387C24.9256 2.88772 27.5389 2.63393 29.8439 2.40905C30.4189 2.35283 30.9667 2.29983 31.4759 2.21791C31.7184 4.07634 31.8035 6.22389 30.6278 8.33129C29.9965 9.55203 28.7468 10.8692 27.396 10.8322C27.3623 8.21885 27.8682 5.92192 28.9251 4.15344C27.1085 4.77666 25.8556 7.36914 25.3239 10.2636ZM35.5525 17.7069C34.751 19.0931 33.6411 19.8882 32.5071 19.8882C31.4373 19.8882 30.9426 19.3582 30.2712 18.6402C31.4437 17.6315 32.8508 16.8878 34.433 16.5521C32.7882 16.5312 31.2446 16.9456 29.8809 17.6604C29.7845 17.0805 30.0126 16.2067 30.3418 15.7329C30.8382 14.9522 31.7618 14.5089 32.5247 14.5089C33.7712 14.5089 35.2811 15.7489 36.2769 16.5071C36.0649 16.8412 35.824 17.2363 35.5525 17.7069Z" fill="url(#paint1_linear_79_705)"/>
<path d="M22.5953 15.1884C21.879 13.7782 20.5217 12.9301 18.9283 12.9301C17.7621 12.9301 16.4707 13.3846 15.2114 14.4078C13.5056 15.7924 12.8647 16.0879 12.8486 16.0944C13.973 17.2187 15.2564 20.9902 18.0593 21.4078C19.2463 21.6231 20.451 21.3114 21.3505 20.6416C22.046 20.1694 22.9776 18.9888 23.1318 17.8548C23.2475 17.0115 23.0387 15.9353 22.5953 15.1884ZM20.3932 19.3534C19.839 19.7662 19.105 19.9622 18.297 19.8192C16.9349 19.6169 15.8523 17.6894 15.1215 16.5152C15.4363 16.2807 15.8009 15.998 16.2234 15.6542C17.1245 14.9234 18.0593 14.5363 18.9267 14.5363C20.2133 14.5363 21.116 15.4053 21.4372 16.5811C19.9916 16.1939 18.4464 16.1104 16.8867 16.4622C18.5733 16.4622 20.1458 16.9184 21.524 17.6845C21.4196 18.2965 20.8188 19.0627 20.3932 19.3534Z" fill="url(#paint2_linear_79_705)"/>
</g>
<defs>
<linearGradient id="paint0_linear_79_705" x1="22.5" y1="24.0725" x2="22.5" y2="44.9537" gradientUnits="userSpaceOnUse">
<stop stop-color="#ED7609"/>
<stop offset="0.0001" stop-color="#F65C30"/>
<stop offset="0.0572917" stop-color="#FA4F45"/>
<stop offset="1" stop-color="#FF4259"/>
</linearGradient>
<linearGradient id="paint1_linear_79_705" x1="30.0843" y1="0.0462646" x2="30.0843" y2="23.8219" gradientUnits="userSpaceOnUse">
<stop stop-color="#ED7609"/>
<stop offset="0.0001" stop-color="#F65C30"/>
<stop offset="0.0572917" stop-color="#FA4F45"/>
<stop offset="1" stop-color="#FF4259"/>
</linearGradient>
<linearGradient id="paint2_linear_79_705" x1="18.006" y1="12.9301" x2="18.006" y2="21.4753" gradientUnits="userSpaceOnUse">
<stop stop-color="#ED7609"/>
<stop offset="0.0001" stop-color="#F65C30"/>
<stop offset="0.0572917" stop-color="#FA4F45"/>
<stop offset="1" stop-color="#FF4259"/>
</linearGradient>
<clipPath id="clip0_79_705">
<rect width="45" height="45" fill="white"/>
</clipPath>
</defs>
</svg>
